Coordinates
version=1
nRows=29
nColumns=24
inDegrees=yes

Units are S.I. units (second, meters, Newtons, ...)
Angles are in degrees.

endheader
time	pelvis_tilt	pelvis_list	pelvis_rotation	pelvis_tx	pelvis_ty	pelvis_tz	hip_flexion_r	hip_adduction_r	hip_rotation_r	knee_angle_r	ankle_angle_r	subtalar_angle_r	mtp_angle_r	hip_flexion_l	hip_adduction_l	hip_rotation_l	knee_angle_l	ankle_angle_l	subtalar_angle_l	mtp_angle_l	lumbar_extension	lumbar_bending	lumbar_rotation
      6.56000000	     -1.52896946	      1.62033251	     -5.93784930	     -1.21055760	      0.67577035	      0.17188953	     -2.16189858	      5.47911763	      8.56223089	     -7.20150162	     18.68835827	    -10.30420564	      0.00000000	     30.24901529	     -0.06471298	      2.92308081	    -34.48809310	      0.94288185	    -25.25191374	      0.00000000	    -12.13208889	     -7.17060875	      8.45420398
      6.57000000	     -0.94546684	      0.96729072	     -6.71361574	     -1.19933073	      0.67446445	      0.17249235	     -4.08250951	      5.92805243	      9.14978324	     -6.88038041	     19.49863472	     -9.98649425	      0.00000000	     29.25840287	     -1.06289540	      3.46897105	    -29.84837397	      1.27781694	    -22.96211138	      0.00000000	    -12.39387049	     -6.49212325	      9.32389490
      6.58000000	     -0.39748576	      0.24420378	     -7.40343499	     -1.18789807	      0.67287397	      0.17305772	     -6.02596958	      6.41418795	      9.72727970	     -6.53877046	     20.32184474	     -9.67290686	      0.00000000	     28.15495102	     -2.17372077	      3.89438725	    -25.00817477	      1.56149655	    -20.04142003	      0.00000000	    -12.64137561	     -5.72433350	      9.96426337
      6.59000000	      0.11875132	     -0.51097537	     -8.17328980	     -1.17620271	      0.67103330	      0.17366267	     -7.99460849	      6.87123490	     10.39161438	     -6.18025675	     21.11619340	     -9.34568441	      0.00000000	     26.86519113	     -3.36147422	      4.29553723	    -19.89813724	      1.58112617	    -17.51200610	      0.00000000	    -12.82646458	     -4.94584002	     10.80875169
      6.60000000	      0.54459617	     -1.29043890	     -8.87249000	     -1.16426949	      0.66889363	      0.17424158	     -9.92655178	      7.32382824	     11.02771566	     -5.79865538	     21.94123176	     -9.01893892	      0.00000000	     25.61018551	     -4.62806330	      4.34965555	    -14.77085715	      1.57988948	    -14.39611933	      0.00000000	    -12.92882985	     -4.11494708	     11.41857018
      6.61000000	      0.86818014	     -2.02683871	     -9.66394234	     -1.15209218	      0.66649264	      0.17487924	    -11.78791767	      7.67385197	     11.74156126	     -5.41954792	     22.75405096	     -8.67739687	      0.00000000	     24.33851183	     -5.90831952	      4.13596201	     -9.61483033	      1.49147933	    -11.44751990	      0.00000000	    -12.89294172	     -3.34055761	     12.12817957
      6.62000000	      1.06233438	     -2.67509628	    -10.50017881	     -1.13973284	      0.66384522	      0.17554585	    -13.53589770	      7.88864913	     12.48056672	     -5.03749711	     23.55209932	     -8.32535898	      0.00000000	     23.21512544	     -7.13809820	      3.32380242	     -4.71738893	      1.64981290	     -8.01238746	      0.00000000	    -12.70872421	     -2.64692772	     12.78168738
      6.63000000	      0.97093238	     -3.22770812	    -11.40449018	     -1.12729491	      0.66087853	      0.17622094	    -14.97148667	      7.99273103	     13.25997455	     -4.68800430	     24.28269132	     -7.94160695	      0.00000000	     22.49685759	     -8.29240181	      1.88081019	     -0.30476963	      2.31011735	     -3.98933217	      0.00000000	    -12.20665585	     -1.99333759	     13.41160439
      6.64000000	      0.87661921	     -3.52768151	    -12.34838525	     -1.11478058	      0.65786266	      0.17685442	    -16.35082429	      7.77658226	     13.98458615	     -4.35868661	     25.08617770	     -7.58436401	      0.00000000	     21.80830150	     -9.11782911	      0.32263933	      3.76400308	      2.75866586	     -0.65734748	      0.00000000	    -11.69901458	     -1.61461415	     13.90041487
      6.65000000	      0.50980344	     -3.71218232	    -13.34648076	     -1.10234575	      0.65459454	      0.17746392	    -17.37184774	      7.45577529	     14.69828893	     -4.10555009	     25.82054269	     -7.16996913	      0.00000000	     21.58971823	     -9.83182505	     -1.25677349	      7.10482649	      3.54482575	      2.25388815	      0.00000000	    -10.91628293	     -1.28129593	     14.35872809
      6.66000000	      0.05037308	     -3.77893555	    -14.33899527	     -1.09003089	      0.65122747	      0.17803522	    -18.21354684	      7.01828666	     15.33054505	     -3.91862613	     26.49794536	     -6.76264723	      0.00000000	     21.67698697	    -10.42179060	     -2.53090059	      9.63990321	      4.29743934	      4.01358300	      0.00000000	    -10.08388549	     -1.04759042	     14.69963788
      6.67000000	     -0.43508240	     -3.77259080	    -15.30964391	     -1.07789213	      0.64783726	      0.17855529	    -18.93404162	      6.50911670	     15.97111374	     -3.83245910	     27.10607637	     -6.47498298	      0.00000000	     22.04235706	    -10.95460408	     -3.38980620	     11.23852121	      4.78678811	      4.28851593	      0.00000000	     -9.31613647	     -0.86852965	     14.96196225
      6.68000000	     -1.01126309	     -3.58860288	    -16.18599810	     -1.06590042	      0.64443386	      0.17898709	    -19.46296160	      5.86316715	     16.43535551	     -3.76570816	     27.60467520	     -6.06649182	      0.00000000	     23.01242135	    -11.28326284	     -4.71631548	     11.49134764	      5.39415993	      4.71280858	      0.00000000	     -8.48258022	     -0.87931728	     15.11190918
      6.69000000	     -1.37021606	     -3.33989817	    -17.03108357	     -1.05399466	      0.64124361	      0.17936951	    -20.15644305	      5.08220701	     16.91184163	     -3.72431881	     27.99487483	     -5.81926754	      0.00000000	     24.02573953	    -11.51654250	     -5.89671309	     10.76624239	      5.53094174	      3.81780125	      0.00000000	     -7.98019078	     -1.04488103	     15.26039202
      6.70000000	     -1.75209965	     -3.07184367	    -17.85644879	     -1.04212448	      0.63809165	      0.17972156	    -20.75868349	      4.28470253	     17.32506235	     -3.76069296	     28.21949013	     -5.54343355	      0.00000000	     25.35049593	    -11.76153210	     -7.28780299	      9.08331979	      5.30424127	      2.57059837	      0.00000000	     -7.51705956	     -1.26317687	     15.50104062
      6.71000000	     -2.12122302	     -2.85924293	    -18.67798175	     -1.03009535	      0.63498771	      0.18002850	    -21.38140180	      3.50781706	     17.62629543	     -3.79052002	     28.31003982	     -5.23770402	      0.00000000	     26.77299748	    -12.09592579	     -8.81796935	      6.77917960	      4.75324403	      0.95613055	      0.00000000	     -7.10610402	     -1.42580862	     15.85626117
      6.72000000	     -2.50757994	     -2.74604455	    -19.51122921	     -1.01783956	      0.63189928	      0.18029723	    -21.99303070	      2.79928016	     17.83907086	     -3.87487811	     28.22671911	     -4.72991029	      0.00000000	     28.12075821	    -12.58223017	     -9.87706603	      4.23573101	      3.72130307	     -1.65465992	      0.00000000	     -6.72945965	     -1.47910557	     16.29082418
      6.73000000	     -2.64822727	     -2.62101615	    -20.40007822	     -1.00523196	      0.62910313	      0.18054392	    -22.87046217	      1.91939223	     17.90541133	     -3.89821076	     27.91968053	     -4.16616327	      0.00000000	     29.02843595	    -13.01211757	    -10.92804448	      1.69710552	      2.29085832	     -4.54226766	      0.00000000	     -6.61300029	     -1.65319461	     16.88390539
      6.74000000	     -2.82940194	     -2.48474669	    -21.27816671	     -0.99234356	      0.62640912	      0.18069169	    -23.66152271	      1.00581417	     17.76875347	     -3.97440813	     27.41478404	     -3.45153208	      0.00000000	     29.81523133	    -13.42296696	    -11.73737865	     -0.76071240	      0.37723003	     -7.55081786	      0.00000000	     -6.44654679	     -1.81935378	     17.48005857
      6.75000000	     -2.99985107	     -2.24430096	    -22.06997034	     -0.97922466	      0.62391807	      0.18067379	    -24.35823798	     -0.00812805	     17.34695305	     -4.14413773	     26.75763928	     -2.51334231	      0.00000000	     30.47322550	    -13.65167863	    -12.15011740	     -3.07438430	     -2.21919498	    -10.75051923	      0.00000000	     -6.26618070	     -2.09588892	     17.94452604
      6.76000000	     -3.19581791	     -1.81307976	    -22.66408053	     -0.96597650	      0.62164868	      0.18040147	    -24.84862398	     -1.12062992	     16.58992554	     -4.49072488	     25.96484749	     -1.38669600	      0.00000000	     31.20428374	    -13.57388182	    -12.12193295	     -5.37870373	     -5.41946384	    -13.93403106	      0.00000000	     -6.02648046	     -2.56467483	     18.15177771
      6.77000000	     -3.39181164	     -1.11298179	    -22.93661992	     -0.95269417	      0.61965623	      0.17978903	    -25.11277567	     -2.33902023	     15.50053111	     -5.06374896	     25.00371662	     -0.17357926	      0.00000000	     32.19798881	    -13.06777775	    -11.70405205	     -7.95061433	     -8.71557071	    -16.71281650	      0.00000000	     -5.75093003	     -3.32975333	     17.98935060
      6.78000000	     -3.55395448	     -0.15759802	    -22.80012714	     -0.93945444	      0.61797303	      0.17880438	    -25.18026744	     -3.60166483	     14.15780397	     -5.93150770	     23.84594912	      0.95674397	      0.00000000	     33.60683122	    -12.12313392	    -11.06222946	    -11.14897600	    -11.15772354	    -18.50330559	      0.00000000	     -5.51229790	     -4.41328846	     17.42226598
      6.79000000	     -3.57937687	      0.96982209	    -22.24948612	     -0.92625656	      0.61665237	      0.17750899	    -25.26720701	     -4.84576172	     13.00508473	     -6.99611536	     22.15141586	      1.23319766	      0.00000000	     35.35500101	    -10.81100187	    -10.52093107	    -15.17026369	    -11.80947948	    -18.70870484	      0.00000000	     -5.48619459	     -5.78489805	     16.57695819
      6.80000000	     -3.62556745	      2.17182721	    -21.41373097	     -0.91303683	      0.61552911	      0.17591969	    -25.02880218	     -5.97806858	     11.49716094	     -8.69625507	     20.64068506	      2.06168218	      0.00000000	     37.34727900	     -9.25400719	     -9.90975612	    -19.66338983	    -11.09151404	    -18.48515019	      0.00000000	     -5.50943678	     -7.23543618	     15.61711411
      6.81000000	     -3.43466431	      3.35607279	    -20.45569191	     -0.89976273	      0.61487942	      0.17424091	    -24.88160633	     -7.04006267	     10.41699940	    -10.74251161	     18.41100560	      1.89837046	      0.00000000	     38.96320574	     -7.49453806	     -9.41346559	    -24.06940829	     -9.33231944	    -17.94867177	      0.00000000	     -5.89708922	     -8.78387359	     14.81898873
      6.82000000	     -3.25502824	      4.51310188	    -19.49535187	     -0.88647600	      0.61461633	      0.17246531	    -24.39895321	     -7.98821772	      9.55288528	    -13.37615661	     15.66790101	      1.45411457	      0.00000000	     40.15129055	     -5.56543044	     -8.75189420	    -27.77806872	     -7.62421286	    -18.34402110	      0.00000000	     -6.33806823	    -10.27244780	     14.22818072
      6.83000000	     -2.96858056	      5.52311627	    -18.80640723	     -0.87329755	      0.61494898	      0.17096844	    -23.73942239	     -8.79939492	      9.48774109	    -16.39986800	     11.97799745	     -0.13669637	      0.00000000	     40.71781842	     -3.86118267	     -8.58263308	    -30.82712832	     -5.19483332	    -18.23344333	      0.00000000	     -6.93793173	    -11.63400820	     14.06633631
      6.84000000	     -2.83933260	      6.34996184	    -18.31907662	     -0.86039136	      0.61575578	      0.16955825	    -22.41656946	     -9.37767097	      9.59700141	    -20.09906996	      7.55669790	     -1.86157202	      0.00000000	     40.85411450	     -2.35152373	     -8.38774997	    -32.93507340	     -3.15157521	    -18.66037703	      0.00000000	     -7.42167079	    -12.69157078	     14.20892256
